# xmcd
#
# Track frame offsets:
#	150
#	16884
#	35738
#	50289
#	67376
#	85965
#	100410
#	112305
#	129399
#	148969
#	166670
#	186462
#	205195
#	222793
#	236705
#	252107
#	278617
#
# Disc length: 3729 seconds
#
# Revision: 1
# Processed by: cddbd v1.5.2PL0 Copyright (c) Steve Scherf et al.
# Submitted via: audiograbber 1.83.01
#
DISCID=040e8f11
DTITLE=Various Artist - Country hits of the 90's CDG5009-03
DYEAR=2004
DGENRE=Karaoke
TTITLE0=Keith, Toby - How Do You Like Me Now
TTITLE1=Twain, Shania - Any Man Of Mine
TTITLE2=Byrd, Tracy - Watermelon Crawl
TTITLE3=Twain, Shania - Honey I'm Home
TTITLE4=Lonestar - Amazed
TTITLE5=Dixie Chicks, The - I Can Love You Better
TTITLE6=Montgomery, John Michael - Sold (The Grundy County Auction Incident)
TTITLE7=McBride, Martina - A Broken Wing
TTITLE8=Chesney, Kenny - She Thinks My Tractor's Sexy
TTITLE9=Dixie Chicks, The - Wide Open Spaces
TTITLE10=Gill, Vince - When I Call Your Name
TTITLE11=Twain, Shania - Man, I Feel Like  A Woman
TTITLE12=McGraw, Tim and Faith Hill - It's Your Love
TTITLE13=Dixie Chicks, The - Let 'Er Rip
TTITLE14=Montgomery Gentry - Hillbilly Shoes
TTITLE15=Hill, Faith - This Kiss
TTITLE16=Blank Dummy Track - Nothing
EXTD=
EXTT0=
EXTT1=
EXTT2=
EXTT3=
EXTT4=
EXTT5=
EXTT6=
EXTT7=
EXTT8=
EXTT9=
EXTT10=
EXTT11=
EXTT12=
EXTT13=
EXTT14=
EXTT15=
EXTT16=
PLAYORDER=
